# xmcd
# 
# Track frame offsets:
#     150
#     18255
#     40917
#     55850
#     76307
#     96642
#     111212
#     133582
#     154075
#     169997
#     183977
#     207082
# 
# Disc length: 3022
# 
# Revision: 1
# Processed by: cddbd v1.5.2PL0 Copyright (c) Steve Scherf et al.
# Submitted via: fre:ac v1.0.17
# 
DISCID=9d0bcc0c
DTITLE=薬奏 - バイタリティー増強
DYEAR=2001
DGENRE=Meditative
TTITLE0=ドリーム・フライト
TTITLE1=巨大な翼
TTITLE2=ユートピア（Piano Version）
TTITLE3=四次元へ
TTITLE4=対流
TTITLE5=From The Heart
TTITLE6=Gemini
TTITLE7=蘇る記憶
TTITLE8=大陸をめざせ
TTITLE9=Shrine
TTITLE10=地球誕生
TTITLE11=未来世紀へ
EXTD=YEAR: 2001
EXTT0=
EXTT1=
EXTT2=
EXTT3=
EXTT4=
EXTT5=
EXTT6=
EXTT7=
EXTT8=
EXTT9=
EXTT10=
EXTT11=
PLAYORDER=
